<svg width="33" height="32" viewBox="0 0 33 32" fill="none" xmlns="http://www.w3.org/2000/svg">
<path d="M24.642 18.3812C24.6476 16.8725 24.2498 15.3898 23.4897 14.0866C22.7296 12.7835 21.6349 11.7072 20.3189 10.9694C19.003 10.2316 17.5137 9.85908 16.0054 9.89041C14.4971 9.92173 13.0246 10.3558 11.7404 11.1476C10.4563 11.9394 9.40719 13.0602 8.70186 14.3938C7.99653 15.7274 7.6606 17.2253 7.72889 18.7324C7.79717 20.2396 8.26719 21.701 9.09023 22.9653C9.91328 24.2297 11.0594 25.251 12.4099 25.9234V30.0814C12.4162 30.3272 12.5183 30.5608 12.6945 30.7325C12.8706 30.9041 13.1068 31.0001 13.3527 31H19.0094C19.2553 31.0001 19.4915 30.9041 19.6677 30.7325C19.8438 30.5608 19.9459 30.3272 19.9522 30.0814V25.8509C21.3452 25.1575 22.52 24.0933 23.3474 22.7755C24.1748 21.4576 24.6227 19.9371 24.642 18.3812Z" stroke="#858585" stroke-width="2" stroke-linecap="round" stroke-linejoin="round"/>
<path d="M16.1816 1V4.6261" stroke="#858585" stroke-width="2" stroke-linecap="round" stroke-linejoin="round"/>
<path d="M25.851 4.45682L23.2886 7.04344" stroke="#858585" stroke-width="2" stroke-linecap="round" stroke-linejoin="round"/>
<path d="M31.3629 11.9508H27.7368" stroke="#858585" stroke-width="2" stroke-linecap="round" stroke-linejoin="round"/>
<path d="M6.51172 4.45682L9.07416 7.04344" stroke="#858585" stroke-width="2" stroke-linecap="round" stroke-linejoin="round"/>
<path d="M1 11.9508H4.6261" stroke="#858585" stroke-width="2" stroke-linecap="round" stroke-linejoin="round"/>
</svg>
