<svg width="33" height="32" viewBox="0 0 33 32" fill="none" xmlns="http://www.w3.org/2000/svg">
<path d="M24.642 18.3812C24.6476 16.8726 24.2498 15.3899 23.4897 14.0867C22.7296 12.7836 21.6349 11.7073 20.3189 10.9695C19.003 10.2317 17.5137 9.85917 16.0054 9.8905C14.4971 9.92183 13.0246 10.3559 11.7404 11.1477C10.4563 11.9395 9.40719 13.0603 8.70186 14.3939C7.99653 15.7275 7.6606 17.2254 7.72889 18.7325C7.79717 20.2396 8.26719 21.7011 9.09023 22.9654C9.91328 24.2298 11.0594 25.2511 12.4099 25.9235V30.0815C12.4162 30.3273 12.5183 30.5609 12.6945 30.7325C12.8706 30.9042 13.1068 31.0002 13.3527 31.0001H19.0094C19.2553 31.0002 19.4915 30.9042 19.6677 30.7325C19.8438 30.5609 19.9459 30.3273 19.9522 30.0815V25.851C21.3452 25.1576 22.52 24.0934 23.3474 22.7756C24.1748 21.4577 24.6227 19.9372 24.642 18.3812Z" fill="#858585" stroke="#858585" stroke-width="2" stroke-linecap="round" stroke-linejoin="round"/>
<path d="M16.1816 1V4.6261" stroke="#858585" stroke-width="2" stroke-linecap="round" stroke-linejoin="round"/>
<path d="M25.851 4.45679L23.2886 7.04341" stroke="#858585" stroke-width="2" stroke-linecap="round" stroke-linejoin="round"/>
<path d="M31.3629 11.9509H27.7368" stroke="#858585" stroke-width="2" stroke-linecap="round" stroke-linejoin="round"/>
<path d="M6.51172 4.45679L9.07416 7.04341" stroke="#858585" stroke-width="2" stroke-linecap="round" stroke-linejoin="round"/>
<path d="M1 11.9509H4.6261" stroke="#858585" stroke-width="2" stroke-linecap="round" stroke-linejoin="round"/>
</svg>
