<svg width="33" height="32" viewBox="0 0 33 32" fill="none" xmlns="http://www.w3.org/2000/svg">
<path d="M15.8988 29.5383L16.5716 30.15L17.2443 29.5383L19.3292 27.6427L19.3306 27.6413L19.3424 27.6306C23.0219 24.298 26.157 21.4585 28.3613 18.7648C30.5792 16.0545 31.9596 13.3697 31.9596 10.3316C31.9596 5.33634 28.0277 1.42749 23.0462 1.42749C20.6198 1.42749 18.29 2.39941 16.5716 3.98077C14.8532 2.39941 12.5234 1.42749 10.097 1.42749C5.11551 1.42749 1.18359 5.33634 1.18359 10.3316C1.18359 13.3697 2.56397 16.0545 4.78188 18.7648C6.98619 21.4585 10.1213 24.298 13.8008 27.6306L13.8126 27.6413L13.814 27.6427L15.8988 29.5383Z" fill="#FF0000" stroke="#CB0000" stroke-width="2"/>
</svg>
